#!OML:ASF F:\VICON\USERDATA\INSTALL\rory3\rory3.ASF
:FULLY-SPECIFIED
:DEGREES
636
root 16.4126 17.7299 12.0643 -182.066 -3.67821 -178.947
lowerback 14.2239 1.36303 -4.10638
upperback 0.498174 1.06003 0.514774
thorax -7.55379 0.618511 2.6635
lowerneck -18.892 -6.68767 -12.697
upperneck 29.6979 -10.9707 10.5944
head 14.7729 -5.39651 4.30526
rclavicle -1.43373e-014 -4.37326e-015
rhumerus -39.9615 -20.1727 -73.2536
rradius 34.1647
rwrist 10.8578
rhand -18.4333 5.92146
rfingers 7.12502
rthumb 7.85218 -23.9127
lclavicle -1.43373e-014 -4.37326e-015
lhumerus -33.9647 4.59946 79.6258
lradius 35.1719
lwrist -2.64167
lhand -18.2556 25.9963
lfingers 7.12502
lthumb 8.02366 55.824
rfemur -13.263 -5.02911 13.7411
rtibia 40.6974
rfoot -21.1959 -4.33833
rtoes -1.05799
lfemur -5.17284 -3.7412 -17.8229
ltibia 27.4054
lfoot -18.1618 -10.6712
ltoes 1.87715
637
root 16.4833 17.7325 12.0568 -182.171 -3.71838 -178.972
lowerback 14.278 1.31906 -4.05441
upperback 0.566681 1.00613 0.545528
thorax -7.50579 0.586858 2.67826
lowerneck -19.0078 -6.6313 -12.6598
upperneck 29.6609 -10.8516 10.5813
head 14.7596 -5.33292 4.31566
rclavicle -1.16786e-015 -8.34896e-015
rhumerus -39.9237 -20.045 -73.4358
rradius 34.5315
rwrist 9.88443
rhand -19.1593 5.11453
rfingers 7.12502
rthumb 7.15134 -24.7446
lclavicle -1.16786e-015 -8.34896e-015
lhumerus -33.9807 4.71995 79.5595
lradius 35.0791
lwrist -2.3392
lhand -17.3891 25.5685
lfingers 7.12502
lthumb 8.85991 55.3625
rfemur -13.0199 -4.72693 12.9573
rtibia 40.4272
rfoot -20.0452 -5.16559
rtoes 1.17617
lfemur -4.89738 -3.87658 -17.6386
ltibia 27.0598
lfoot -18.1247 -10.4635
ltoes 0.510488
638
root 16.5542 17.7358 12.0477 -182.19 -3.87843 -179.072
lowerback 14.2825 1.24259 -4.06332
upperback 0.549704 0.905781 0.566337
thorax -7.51921 0.540073 2.72625
lowerneck -18.8144 -6.54418 -12.6958
upperneck 29.4928 -10.7095 10.6183
head 14.6235 -5.27454 4.3667
rclavicle -9.6659e-015 3.57812e-015
rhumerus -39.9744 -20.1499 -73.3797
rradius 34.7524
rwrist 9.38089
rhand -19.6482 4.41004
rfingers 7.12502
rthumb 6.67943 -25.4646
lclavicle -9.6659e-015 3.57812e-015
lhumerus -34.1748 4.48515 79.6019
lradius 35.0431
lwrist -1.71494
lhand -16.9023 25.0529
lfingers 7.12502
lthumb 9.32964 54.8265
rfemur -12.817 -4.6146 12.0652
rtibia 40.1383
rfoot -18.9754 -5.93415
rtoes 1.6989
lfemur -4.67962 -3.94324 -17.5402
ltibia 26.6731
lfoot -18.2499 -10.1189
ltoes -2.45771
639
root 16.6261 17.7422 12.0363 -182.191 -4.04239 -179.057
lowerback 14.2645 1.15096 -4.01302
upperback 0.520481 0.80218 0.648677
thorax -7.53272 0.491701 2.80716
lowerneck -18.7881 -6.47787 -12.6655
upperneck 29.5063 -10.5779 10.4949
head 14.5912 -5.23085 4.33738
rclavicle 8.32411e-015 -5.96354e-016
rhumerus -40.0383 -20.3442 -73.1333
rradius 34.877
rwrist 9.30723
rhand -19.6555 4.39797
rfingers 7.12502
rthumb 6.67241 -25.4769
lclavicle 8.32411e-015 -5.96354e-016
lhumerus -34.3959 4.42231 79.6035
lradius 34.994
lwrist -1.54257
lhand -16.9816 25.2085
lfingers 7.12502
lthumb 9.25306 54.9854
rfemur -12.6146 -4.4998 11.3304
rtibia 39.8254
rfoot -17.9686 -6.80407
rtoes -0.704664
lfemur -4.45142 -4.14831 -17.3066
ltibia 26.2318
lfoot -18.192 -9.8514
ltoes -4.19261
640
root 16.7005 17.7536 12.0238 -182.256 -4.08655 -179.105
lowerback 14.1967 1.15105 -4.06244
upperback 0.611217 0.799552 0.722856
thorax -7.39886 0.487255 2.91582
lowerneck -18.9094 -6.50984 -12.6041
upperneck 29.4351 -10.5342 10.3455
head 14.5647 -5.2076 4.27007
rclavicle -1.11444e-014 -6.75868e-015
rhumerus -39.9881 -20.4472 -72.9668
rradius 35.0614
rwrist 8.96005
rhand -19.4967 4.55656
rfingers 7.12502
rthumb 6.82568 -25.3134
lclavicle -1.11444e-014 -6.75868e-015
lhumerus -34.3253 4.39272 79.6367
lradius 34.7972
lwrist -1.76789
lhand -16.4809 25.2707
lfingers 7.12502
lthumb 9.73625 55.0257
rfemur -12.2549 -4.02948 10.5065
rtibia 39.4782
rfoot -17.1539 -7.33115
rtoes 1.41892
lfemur -4.12642 -4.54111 -17.1224
ltibia 25.8035
lfoot -17.8676 -9.79847
ltoes -2.52248
641
root 16.7776 17.7595 12.0077 -182.352 -4.10519 -179.302
lowerback 14.1734 1.18806 -4.26504
upperback 0.635042 0.818285 0.751872
thorax -7.36563 0.502183 3.05827
lowerneck -18.7618 -6.53072 -12.6624
upperneck 29.3067 -10.5501 10.3719
head 14.4833 -5.21931 4.28774
rclavicle -3.15571e-015 3.18055e-015
rhumerus -40.1145 -20.555 -72.7125
rradius 35.2336
rwrist 8.59358
rhand -19.3529 4.61099
rfingers 7.12502
rthumb 6.96451 -25.2544
lclavicle -3.15571e-015 3.18055e-015
lhumerus -34.3465 4.25811 79.6745
lradius 34.4694
lwrist -1.89121
lhand -15.635 25.7982
lfingers 7.12502
lthumb 10.5522 55.5133
rfemur -11.8654 -3.68225 9.49028
rtibia 39.0871
rfoot -16.2715 -7.61555
rtoes 7.21667
lfemur -3.7527 -4.83524 -17.0909
ltibia 25.4033
lfoot -17.6256 -9.81452
ltoes -0.851801
642
root 16.8588 17.7608 11.9933 -182.435 -4.18922 -179.386
lowerback 14.2401 1.19421 -4.3535
upperback 0.584775 0.816322 0.820188
thorax -7.45955 0.509749 3.18163
lowerneck -18.695 -6.51048 -12.7633
upperneck 29.3804 -10.5333 10.4007
head 14.5074 -5.2292 4.32305
rclavicle 1.09207e-014 -4.47266e-015
rhumerus -40.3615 -20.6449 -72.4055
rradius 35.4575
rwrist 8.2737
rhand -19.3408 4.40771
rfingers 7.12502
rthumb 6.97617 -25.4573
lclavicle 1.09207e-014 -4.47266e-015
lhumerus -34.5442 4.01069 79.7685
lradius 34.243
lwrist -1.79642
lhand -15.5555 25.9294
lfingers 7.12502
lthumb 10.6289 55.6406
rfemur -11.4562 -3.53821 8.61849
rtibia 38.5975
rfoot -15.2901 -8.04475
rtoes 10.0342
lfemur -3.47043 -5.0203 -16.9216
ltibia 25.0827
lfoot -17.5781 -9.69999
ltoes -1.56844
643
root 16.9388 17.7702 11.9753 -182.48 -4.21886 -179.393
lowerback 14.1669 1.17175 -4.349
upperback 0.589805 0.79778 0.898493
thorax -7.41253 0.50138 3.26697
lowerneck -18.8238 -6.4404 -12.7197
upperneck 29.5527 -10.417 10.2823
head 14.5824 -5.19026 4.29111
rclavicle 4.32357e-015 -8.34896e-015
rhumerus -40.5276 -20.6602 -72.1883
rradius 35.669
rwrist 8.26532
rhand -19.5048 4.27656
rfingers 7.12502
rthumb 6.81787 -25.5937
lclavicle 4.32357e-015 -8.34896e-015
lhumerus -34.626 3.99751 79.7746
lradius 34.0424
lwrist -2.05638
lhand -16.6769 24.8519
lfingers 7.12502
lthumb 9.54705 54.6156
rfemur -11.1046 -3.40575 7.87512
rtibia 38.1264
rfoot -14.1082 -8.60406
rtoes 9.43086
lfemur -3.19887 -5.16654 -16.6812
ltibia 24.7292
lfoot -17.5275 -9.48009
ltoes -2.53967
644
root 17.0201 17.7663 11.9553 -182.629 -4.16159 -179.306
lowerback 14.1263 1.18987 -4.2253
upperback 0.665747 0.846614 0.982753
thorax -7.31178 0.516824 3.27727
lowerneck -18.8689 -6.42413 -12.737
upperneck 29.5046 -10.3785 10.3295
head 14.5697 -5.16444 4.32023
rclavicle -4.36084e-015 1.98785e-016
rhumerus -40.5993 -20.7867 -71.975
rradius 35.7739
rwrist 8.29485
rhand -19.5527 4.38691
rfingers 7.12502
rthumb 6.77166 -25.4848
lclavicle -4.36084e-015 1.98785e-016
lhumerus -34.602 3.84328 79.8151
lradius 33.8662
lwrist -2.35101
lhand -17.129 24.3719
lfingers 7.12502
lthumb 9.11085 54.1551
rfemur -10.6468 -2.80907 7.20551
rtibia 37.6598
rfoot -13.0792 -8.99355
rtoes 11.4812
lfemur -2.78484 -5.32682 -16.3436
ltibia 24.3336
lfoot -17.3624 -9.2612
ltoes -3.10939
